# xmcd CD database file
#
# Track frame offsets:
#	150
#	20966
#	39708
#	57443
#	74341
#	79953
#	104871
#	119722
#	138473
#	156972
#	182811
#	207550
#	221084
#	237549
#	252793
#	262482
#	278194
#	287072
#	310538
#	326922
#	342398
#
# Disc length: 4762 seconds
#
# Revision: 0
# Processed by: cddbd v1.5.2PL0 Copyright (c) Steve Scherf et al.
# Submitted via: CDex 1.70beta2
#
DISCID=6c129815
DTITLE=Harry James - The In Person and Hi-Fi Sound of Harry James
DYEAR=1900
DGENRE=Jazz
TTITLE0=Ultra
TTITLE1=Blues from "An American in Paris"
TTITLE2=Mam Bongo
TTITLE3=Memphis Blues
TTITLE4=The Flight of the Buble Bee
TTITLE5=There They Go
TTITLE6=Jackpot Blues
TTITLE7=You Go to My Head
TTITLE8=Don't Stop
TTITLE9=Feet Draggin' Blues
TTITLE10=Back Street Boogie
TTITLE11=Anything
TTITLE12=One for My Baby
TTITLE13=Marchin'
TTITLE14=Tenderly
TTITLE15=Moonlight Fiesta
TTITLE16=I'll Remember April
TTITLE17=Concerto for Clarinet
TTITLE18=Bali Hai
TTITLE19=Stealin' Apples
TTITLE20=Perdido
EXTD=
EXTT0=
EXTT1=
EXTT2=
EXTT3=
EXTT4=
EXTT5=
EXTT6=
EXTT7=
EXTT8=
EXTT9=
EXTT10=
EXTT11=
EXTT12=
EXTT13=
EXTT14=
EXTT15=
EXTT16=
EXTT17=
EXTT18=
EXTT19=
EXTT20=
PLAYORDER=
